<svg width="123" height="14" viewBox="0 0 123 14" fill="none" xmlns="http://www.w3.org/2000/svg">
<path d="M9.756 13.338V3.78H14.76V0.450001H0V3.78H5.004V13.338H9.756Z" fill="#F14210"/>
<path d="M20.572 13.338V6.208H27.61V13.338H32.38V0.450001H27.61V3.004H20.572V0.450001H15.82V13.338H20.572Z" fill="#F14210"/>
<path d="M47.9776 13.338V10.422H38.7796V8.028H44.0776V5.526H38.7796V3.366H47.7976V0.450001H34.1716V13.338H47.9776Z" fill="#F14210"/>
<path d="M58.416 13.338C63.4381 13.338 66.228 11.034 66.228 6.894C66.228 2.754 63.4381 0.450001 58.416 0.450001H49.236V13.338H58.416ZM53.844 3.636H57.732C60.216 3.636 61.6021 4.806 61.6021 6.894C61.6021 8.964 60.216 10.134 57.732 10.134H53.844V3.636Z" fill="#F14210"/>
<path d="M84.0367 13.3948V10.394C83 10.394 80.2927 10.394 80.2927 8.298V8.28C82.6507 7.83 84.0367 6.48 84.0367 4.536C84.0367 1.944 82.0387 0.450001 78.5827 0.450001H67.7107V13.338H72.4627V9.072H75.1267C76.0267 9.072 76.6813 9.55396 77.3407 10.224C78 10.894 79.2667 13.3948 84.0367 13.3948ZM72.4627 3.24H77.1427C78.4747 3.24 79.2667 3.834 79.2667 4.824C79.2667 5.832 78.4747 6.426 77.1247 6.426H72.4627V3.24Z" fill="#F14210"/>
<path d="M94.9601 13.788C100.648 13.788 104.428 11.034 104.428 6.894C104.428 2.736 100.648 0 94.9601 0C89.2721 0 85.4921 2.736 85.4921 6.894C85.4921 11.034 89.2721 13.788 94.9601 13.788ZM94.9601 10.458C92.1341 10.458 90.2441 9.036 90.2441 6.894C90.2441 4.752 92.1341 3.33 94.9601 3.33C97.7861 3.33 99.6581 4.752 99.6581 6.894C99.6581 9.036 97.7861 10.458 94.9601 10.458Z" fill="#F14210"/>
<path d="M110.66 13.338V9.36H116.348C120.002 9.36 122.036 7.794 122.036 4.968C122.036 2.07 120.02 0.450001 116.384 0.450001H105.908V13.338H110.66ZM110.66 3.096H114.782C116.384 3.096 117.266 3.744 117.266 4.896C117.266 6.066 116.384 6.714 114.782 6.714H110.66V3.096Z" fill="#F14210"/>
</svg>
